<svg width="0" height="0" style="display: none;">
    <symbol xmlns="http://www.w3.org/2000/svg" viewBox="0 0 548.358 548.358" id="vk-social-network-logo">
      <path d="M545.451 400.298c-.664-1.431-1.283-2.618-1.858-3.569-9.514-17.135-27.695-38.167-54.532-63.102l-.567-.571-.284-.28-.287-.287h-.288c-12.18-11.611-19.893-19.418-23.123-23.415-5.91-7.614-7.234-15.321-4.004-23.13 2.282-5.9 10.854-18.36 25.696-37.397 7.807-10.089 13.99-18.175 18.556-24.267 32.931-43.78 47.208-71.756 42.828-83.939l-1.701-2.847c-1.143-1.714-4.093-3.282-8.846-4.712-4.764-1.427-10.853-1.663-18.278-.712l-82.224.568c-1.332-.472-3.234-.428-5.712.144l-3.713.859-1.431.715-1.136.859c-.952.568-1.999 1.567-3.142 2.995-1.137 1.423-2.088 3.093-2.848 4.996-8.952 23.031-19.13 44.444-30.553 64.238-7.043 11.803-13.511 22.032-19.418 30.693-5.899 8.658-10.848 15.037-14.842 19.126-4 4.093-7.61 7.372-10.852 9.849-3.237 2.478-5.708 3.525-7.419 3.142-1.715-.383-3.33-.763-4.859-1.143-2.663-1.714-4.805-4.045-6.42-6.995-1.622-2.95-2.714-6.663-3.285-11.136-.568-4.476-.904-8.326-1-11.563-.089-3.233-.048-7.806.145-13.706.198-5.903.287-9.897.287-11.991 0-7.234.141-15.085.424-23.555.288-8.47.521-15.181.716-20.125.194-4.949.284-10.185.284-15.705s-.336-9.849-1-12.991a44.442 44.442 0 00-2.99-9.137c-1.335-2.95-3.289-5.232-5.853-6.852-2.569-1.618-5.763-2.902-9.564-3.856-10.089-2.283-22.936-3.518-38.547-3.71-35.401-.38-58.148 1.906-68.236 6.855-3.997 2.091-7.614 4.948-10.848 8.562-3.427 4.189-3.905 6.475-1.431 6.851 11.422 1.711 19.508 5.804 24.267 12.275l1.715 3.429c1.334 2.474 2.666 6.854 3.999 13.134 1.331 6.28 2.19 13.227 2.568 20.837.95 13.897.95 25.793 0 35.689-.953 9.9-1.853 17.607-2.712 23.127-.859 5.52-2.143 9.993-3.855 13.418-1.715 3.426-2.856 5.52-3.428 6.28-.571.76-1.047 1.239-1.425 1.427a21.387 21.387 0 01-7.71 1.431c-2.667 0-5.901-1.334-9.707-4-3.805-2.666-7.754-6.328-11.847-10.992-4.093-4.665-8.709-11.184-13.85-19.558-5.137-8.374-10.467-18.271-15.987-29.691l-4.567-8.282c-2.855-5.328-6.755-13.086-11.704-23.267-4.952-10.185-9.329-20.037-13.134-29.554-1.521-3.997-3.806-7.04-6.851-9.134l-1.429-.859c-.95-.76-2.475-1.567-4.567-2.427a30.301 30.301 0 00-6.567-1.854l-78.229.568c-7.994 0-13.418 1.811-16.274 5.428l-1.143 1.711c-.571.953-.859 2.475-.859 4.57 0 2.094.571 4.664 1.714 7.707 11.42 26.84 23.839 52.725 37.257 77.659 13.418 24.934 25.078 45.019 34.973 60.237 9.897 15.229 19.985 29.602 30.264 43.112 10.279 13.515 17.083 22.176 20.412 25.981 3.333 3.812 5.951 6.662 7.854 8.565l7.139 6.851c4.568 4.569 11.276 10.041 20.127 16.416 8.853 6.379 18.654 12.659 29.408 18.85 10.756 6.181 23.269 11.225 37.546 15.126 14.275 3.905 28.169 5.472 41.684 4.716h32.834c6.659-.575 11.704-2.669 15.133-6.283l1.136-1.431c.764-1.136 1.479-2.901 2.139-5.276.668-2.379 1-5 1-7.851-.195-8.183.428-15.558 1.852-22.124 1.423-6.564 3.045-11.513 4.859-14.846 1.813-3.33 3.859-6.14 6.136-8.418 2.282-2.283 3.908-3.666 4.862-4.142.948-.479 1.705-.804 2.276-.999 4.568-1.522 9.944-.048 16.136 4.429 6.187 4.473 11.99 9.996 17.418 16.56 5.425 6.57 11.943 13.941 19.555 22.124 7.617 8.186 14.277 14.271 19.985 18.274l5.708 3.426c3.812 2.286 8.761 4.38 14.853 6.283 6.081 1.902 11.409 2.378 15.984 1.427l73.087-1.14c7.229 0 12.854-1.197 16.844-3.572 3.998-2.379 6.373-5 7.139-7.851.764-2.854.805-6.092.145-9.712-.677-3.611-1.344-6.136-2.008-7.563z"></path>
    </symbol>
    <symbol xmlns="http://www.w3.org/2000/svg" viewBox="0 0 300 300" id="telegram-svgrepo-com">
      <path d="M5.299 144.645l69.126 25.8 26.756 86.047c1.712 5.511 8.451 7.548 12.924 3.891l38.532-31.412a11.496 11.496 0 0114.013-.391l69.498 50.457c4.785 3.478 11.564.856 12.764-4.926L299.823 29.22c1.31-6.316-4.896-11.585-10.91-9.259L5.218 129.402c-7.001 2.7-6.94 12.612.081 15.243zm91.57 12.066l135.098-83.207c2.428-1.491 4.926 1.792 2.841 3.726L123.313 180.87a23.112 23.112 0 00-7.163 13.829l-3.798 28.146c-.503 3.758-5.782 4.131-6.819.494l-14.607-51.325c-1.673-5.854.765-12.107 5.943-15.303z"></path>
    </symbol>
    <symbol xmlns="http://www.w3.org/2000/svg" viewBox="0 0 1000 1000" id="edu-icon">
      <path d="M969.6 312.4L535.2 162.6c-27.1-9.9-21.4-9.9-48.3-.2L50.1 311c-26.8 9.7-26.8 25.7.4 35.4l103.8 35.4c-46 44.7-49 91.3-49.6 145.1-17.8 6.8-30.4 24.1-30.4 44.4 0 18.7 10.6 34.7 26 42.6C93 668.6 72 731.1 10 805.1c30.5 23.7 46.3 31.8 70.2 39.7 86.6-37.4 76-136.3 69.3-235 11.9-8.6 19.6-22.6 19.6-38.6 0-17.1-9-32-22.3-40.2 1.6-52.8 12.9-100.1 52.3-130.6.4-.7 1.3-1.6 2.9-2.2l62.7 21.4 225.8 76.9c27.1 9.9 21.4 9.9 48.3.2l430.9-148.6c27.2-10 27-26-.1-35.7z"></path>
      <path d="M539 566.9c-26.9 9.7-21.2 9.7-48.3-.2l-225.8-76.9-55.9-19v216.4c3.8 60.7 143.9 109.6 316 109.6s312.2-48.9 316-109.6V462.8L539 566.9z"></path>
    </symbol>
    <symbol xmlns="http://www.w3.org/2000/svg" viewBox="0 0 1000 1000" id="hobby-icon">
      <path d="M670.28 23.65c-10.44 25.3-23.49 43.57-50.4 69.87-27.11 26.7-32.33 34.94-32.33 51.4 0 10.24-.4 11.04-6.02 13.25-7.63 2.81-8.43 4.42-43.37 76.3-29.71 61.44-29.71 61.44-30.52 77.7-.6 14.26-.2 17.47 4.02 25.3 9.64 17.67 35.14 25.1 54.41 16.06 16.87-7.83 25.1-19.48 59.63-83.32 28.91-53.01 32.73-61.04 32.53-69.07 0-8.23.8-9.64 8.83-16.87 11.85-10.44 18.07-21.48 23.09-41.76 6.02-23.49 4.62-64.65-3.21-99.18-3.01-13.25-6.42-26.7-7.83-29.92-2.21-5.62-2.41-5.62-8.83 10.24z"></path>
      <path d="M553.42 123.24c-77.5 27.51-173.47 92.36-258.6 175.08-104.4 101.19-170.86 206.6-189.33 300.36-4.22 21.29-3.21 66.26 1.81 85.13 6.22 22.89 21.08 51.4 34.33 65.66 20.68 22.29 54.41 41.36 93.56 52.8 31.92 9.24 52.8 11.85 94.37 11.64 45.38-.2 77.7-5.02 127.9-19.47 143.14-41.16 313-149.18 396.33-252.18 26.71-33.13 43.37-65.05 43.37-83.52 0-21.48-14.86-30.32-70.67-41.96-50.39-10.44-73.89-20.28-89.35-37.55-14.86-16.66-20.08-37.95-27.1-113.04-4.42-45.98-7.03-67.46-10.24-79.51l-1.81-7.03-10.65 10.05c-10.04 9.64-10.64 10.64-9.84 18.67.8 7.83-2.01 13.45-35.94 75.89-39.55 72.48-46.18 81.92-65.05 90.55-16.26 7.63-29.92 6.63-53.41-4.02-24.49-10.84-30.92-15.46-36.54-25.9-3.61-6.83-4.42-11.45-4.22-24.5.2-8.83 1.61-19.68 3.41-24.09 7.23-19.48 64.45-135.12 69.27-140.14 3.01-3.01 7.43-6.02 10.04-6.83 4.22-1 4.62-2.01 3.62-8.43-.6-4.02-.2-10.64.6-14.86 2.21-8.83 1.81-9.02-15.86-2.8zm141.95 410.39c8.23 3.81 16.26 15.26 18.07 25.3 2.21 13.65-7.83 31.32-20.88 36.74-31.12 13.05-61.24-22.29-42.76-50.39 9.03-13.66 29.91-19.08 45.57-11.65zm-371.84 64.85c46.98 7.63 78.1 54.61 66.46 100.39-6.43 24.9-22.09 43.97-44.97 54.81-12.45 6.02-15.06 6.43-34.53 6.43-19.48 0-22.09-.4-34.53-6.43-53-25.1-63.85-95.77-20.88-134.32 12.45-11.24 22.29-16.46 38.15-19.87 15.44-3.42 15.84-3.42 30.3-1.01zm229.09 9.24c13.65 8.43 21.48 21.48 22.49 37.95 1 15.66-2.01 25.3-11.24 35.54-10.64 11.85-21.08 16.46-36.54 16.66-52.2.2-68.47-68.06-22.08-91.96 15.25-7.83 32.91-7.23 47.37 1.81zM189.01 879.57c-24.7 49.39-29.11 59.63-29.11 67.26 0 10.24 3.21 17.87 10.44 24.29 7.63 7.03 31.92 18.87 38.55 18.87 7.43 0 21.08-6.02 25.5-11.24 2.81-3.21 84.13-142.55 84.13-144.16 0-.4-12.45-1.21-27.51-1.81-18.87-.8-34.73-2.81-49.79-6.43-12.05-2.81-22.29-5.02-22.49-5.02-.41.02-13.66 26.12-29.72 58.24z"></path>
    </symbol>
    <symbol xmlns="http://www.w3.org/2000/svg" viewBox="0 0 122.88 100.54" id="briefcase-icon">
      <path d="M65.98 54.6H56.9c-.15 0-.27.06-.37.15-.1.1-.15.23-.15.37v19.14c0 .15.06.27.15.37.1.1.23.15.37.15h9.07c.15 0 .27-.06.37-.15.1-.1.15-.23.15-.37V55.12c0-.15-.06-.27-.15-.37-.09-.11-.22-.15-.36-.15zm-59-40.63h31.49V4.94c0-1.37.56-2.6 1.45-3.49C40.82.56 42.06 0 43.41 0h36.06a4.955 4.955 0 014.94 4.94v9.03h31.49c1.93 0 3.67.79 4.92 2.06 1.27 1.27 2.06 3.01 2.06 4.92v16.86c-7.89 5.41-16.03 10.02-24.42 13.78-8.44 3.78-17.14 6.71-26.14 8.73v-6.74c0-1.54-.63-2.96-1.64-3.98a5.632 5.632 0 00-3.98-1.64H56.17c-1.54 0-2.96.63-3.98 1.64a5.632 5.632 0 00-1.64 3.98v6.59c-8.76-2.01-17.25-4.89-25.48-8.58C16.45 47.73 8.1 42.96 0 37.36V20.95c0-1.93.79-3.67 2.06-4.92a6.932 6.932 0 014.92-2.06zm115.9 33.84v45.76c0 1.93-.79 3.67-2.06 4.92-1.27 1.27-3.01 2.06-4.92 2.06H6.98a6.88 6.88 0 01-4.92-2.06C.79 97.22 0 95.48 0 93.57V47.39c6.89 4.42 13.98 8.28 21.27 11.55 9.41 4.22 19.17 7.45 29.29 9.61v7.25c0 1.54.63 2.96 1.64 3.98a5.65 5.65 0 003.98 1.64h10.53c1.54 0 2.96-.63 3.98-1.64a5.632 5.632 0 001.64-3.98v-7.6l.11.46c10.31-2.17 20.25-5.43 29.83-9.73 7.06-3.16 13.93-6.88 20.61-11.12zM75.71 6.73H47.19c-.17 0-.31.06-.44.19-.1.1-.19.27-.19.44v6.42h29.75V7.36c0-.17-.06-.31-.19-.44-.1-.1-.27-.19-.44-.19h.03z"></path>
    </symbol>
    <symbol xmlns="http://www.w3.org/2000/svg" viewBox="0 0 458 458" id="message-icon">
      <path d="M428 41.534H30c-16.569 0-30 13.431-30 30v252c0 16.568 13.432 30 30 30h132.1l43.942 52.243a30 30 0 0045.918 0l43.942-52.243H428c16.568 0 30-13.432 30-30v-252c0-16.569-13.432-30-30-30zm-104.084 240H82.854c-8.284 0-15-6.716-15-15s6.716-15 15-15h241.062c8.284 0 15 6.716 15 15s-6.716 15-15 15zM67.854 198.755c0-8.284 6.716-15 15-15h185.103c8.284 0 15 6.716 15 15s-6.716 15-15 15H82.854c-8.284 0-15-6.716-15-15zm307.292-52.781H82.854c-8.284 0-15-6.716-15-15s6.716-15 15-15h292.291c8.284 0 15 6.716 15 15 .001 8.284-6.715 15-14.999 15z"></path>
    </symbol>
    <symbol xmlns="http://www.w3.org/2000/svg" viewBox="0 0 705.299 705.299" id="time-icon">
      <path d="M395.233 117.99V91.598l64.906.023v-5.55C460.151 38.549 421.636 0 374.08 0h-62.632c-47.511 0-86.06 38.549-86.06 86.071v5.515l66.343.023v26.163c-139.166 24.221-245.08 145.279-245.08 291.385 0 163.594 132.571 296.142 296.107 296.142 163.537 0 296.107-132.548 296.107-296.142.011-145.6-105.167-266.371-243.632-291.167zm-52.475 519.53c-125.907 0-228.339-102.433-228.339-228.362 0-125.896 102.433-228.305 228.339-228.305 125.895 0 228.339 102.41 228.339 228.305 0 125.929-102.432 228.362-228.339 228.362z"></path>
      <path d="M651.987 153.333l-48.017-48.028c-4.274-4.286-10.065-6.688-16.098-6.688s-11.823 2.401-16.097 6.665l-38.929 38.939 80.246 80.2 38.894-38.917c8.883-8.892 8.883-23.277.001-32.171zm-310.263 41.904c-117.714.54-212.966 96.125-212.966 213.92 0 118.231 95.815 214.022 214.012 214.022 118.185 0 213.989-95.769 214-214H341.724V195.237z"></path>
    </symbol>
  </svg>